<svg width="655" height="500" viewBox="0 0 655 500" xmlns="http://www.w3.org/2000/svg"><defs><linearGradient x1="50%" y1="0%" x2="50%" y2="55.025%" id="linearGradient-1"><stop stop-color="#D5B6FF" stop-opacity=".38" offset="0%"/><stop stop-color="#EADAFF" stop-opacity="0" offset="100%"/></linearGradient><linearGradient x1="50%" y1="5.652%" x2="50%" y2="75.86%" id="linearGradient-2"><stop stop-color="#D5B6FF" stop-opacity=".38" offset="0%"/><stop stop-color="#EADAFF" stop-opacity="0" offset="100%"/></linearGradient><linearGradient x1="50%" y1="6.322%" x2="50%" y2="73.83%" id="linearGradient-3"><stop stop-color="#DBC0FF" offset="0%"/><stop stop-color="#EADAFF" stop-opacity="0" offset="100%"/></linearGradient><linearGradient x1="93.469%" y1="21.793%" x2="5.669%" y2="68.11%" id="linearGradient-4"><stop stop-color="#D1B3F9" offset="0%"/><stop stop-color="#EADAFF" offset="100%"/></linearGradient><linearGradient x1="92.842%" y1="52.942%" x2="0%" y2="44.744%" id="linearGradient-5"><stop stop-color="#D7BAFD" offset="0%"/><stop stop-color="#EADAFF" offset="100%"/></linearGradient><linearGradient x1="42.991%" y1="100%" x2="38.029%" y2="33.542%" id="linearGradient-6"><stop stop-color="#DABFFE" stop-opacity=".758" offset="0%"/><stop stop-color="#DC77F6" offset="70.972%"/><stop stop-color="#371D6E" offset="100%"/></linearGradient><linearGradient x1="22.828%" y1="52.882%" x2="100%" y2="40.814%" id="linearGradient-10"><stop stop-color="#C9A3FA" stop-opacity=".386" offset="0%"/><stop stop-color="#9851F1" offset="53.261%"/><stop stop-color="#371D6E" offset="100%"/></linearGradient><filter x="0%" y="0%" width="100%" height="100%" filterUnits="objectBoundingBox" id="filter-7"><feGaussianBlur in="SourceGraphic"/></filter><filter x="0%" y="0%" width="100%" height="100%" filterUnits="objectBoundingBox" id="filter-8"><feGaussianBlur in="SourceGraphic"/></filter><filter x="0%" y="0%" width="100%" height="100%" filterUnits="objectBoundingBox" id="filter-9"><feGaussianBlur in="SourceGraphic"/></filter></defs><g id="Page-1" stroke="none" stroke-width="1" fill="none" fill-rule="evenodd"><g id="VWO-FullStack-Copy" transform="translate(-785 -136)"><g id="header-fullstack" transform="translate(785 138)"><g id="Group-38"><path id="Rectangle" fill="url(#linearGradient-1)" d="M0 277l208 7v159.375H0z"/><path id="Rectangle-Copy-11" fill="url(#linearGradient-2)" d="M145 394l208 16.58v120.795H145z"/><path id="Rectangle" fill="url(#linearGradient-3)" d="M301.928 175.561h127.504v166.375H301.928z"/><g id="Group-37"><path d="M396.791 154.29l99.266-53.985a4.083 4.083 0 00-.051-7.2l-39.694-20.863a3.062 3.062 0 01-.082-5.376L574.514 0" id="Path-11-Copy" stroke="url(#linearGradient-4)" stroke-width="3.062" stroke-linecap="round" stroke-linejoin="round" transform="rotate(180 485.653 77.145)"/><path d="M143.64 36.698l72.213 42.853a8.166 8.166 0 008.191.083l34.721-19.662a4.083 4.083 0 014.024 0l63.436 35.927" id="Path-7" stroke="url(#linearGradient-5)" stroke-width="3.062" stroke-linecap="round" stroke-linejoin="round"/><path d="M654.532 458.148l-156.12-79.984a4.083 4.083 0 01-.216-7.148l100.522-59.434a3.062 3.062 0 00-.04-5.294L396.792 190.872" id="Path-11-Copy-2" stroke-opacity=".664" stroke="#E0C9FF" stroke-width="3.062" stroke-linecap="round" stroke-linejoin="round"/><g id="Group-36" transform="translate(143.824 190.872)"><path d="M134.899 186.097l91.158-45.04a4.083 4.083 0 00.27-7.174L125.74 74.411a3.062 3.062 0 01-.053-5.24L237.478 0" id="Path-11" stroke="url(#linearGradient-6)" stroke-width="3.062" stroke-linecap="round" stroke-linejoin="round"/><g id="Group-33" transform="translate(0 152.085)"><path d="M0 59.317l110.156 60.866c1.81 1 4 1.019 5.828.052l92.874-49.175v-9.191L0 48.994v10.323z" id="Path-9-Copy" fill="#FFC4E2"/><path d="M95.87 0l112.988 61.9-94.423 48.642a3.062 3.062 0 01-2.874-.036L0 49.388 95.87 0z" id="Rectangle-Copy" fill="#FFF"/><g id="Group-12" transform="translate(31.62 7.145)"><g id="Group-32" transform="translate(0 10.207)"><path id="Rectangle-Copy-2" fill="#FFD2E9" d="M51.994 0l42.274 23.87-10.132 5.22L41.86 5.22z"/><path id="Rectangle-Copy-3" fill="#FFD2E9" d="M39.062 6.518l42.274 23.87-10.132 5.22-42.275-23.87z"/><path id="Rectangle-Copy-7" fill="#FFD2E9" d="M25.79 13.072l42.275 23.87-10.132 5.22-42.275-23.87z"/><path id="Rectangle-Copy-8" fill="#371D6E" d="M10.132 21.435l27.639 15.507-10.132 5.22L0 26.655z"/><path id="Rectangle-Copy-2" fill="#CD2379" d="M100.825 27.559l42.275 23.87-53.843 27.165-42.275-23.87z"/></g><g id="Group-30" transform="translate(61.072)" fill="#FFA1D1"><ellipse id="Oval" cx="2.55" cy="2.041" rx="2.55" ry="2.041"/><ellipse id="Oval-Copy" cx="10.71" cy="6.124" rx="2.55" ry="2.041"/><ellipse id="Oval-Copy-2" cx="18.871" cy="10.207" rx="2.55" ry="2.041"/></g></g></g></g><g id="Group-8" transform="translate(300.908 28.58)"><g id="Group-32-Copy"><path id="Path-2-Copy-2" fill="#CD2379" d="M.887 126.644v25.352l65.515 37.178 61.876-35.995v-26.506z"/><path id="Rectangle-Copy-10" fill="#371D6E" transform="rotate(45 64.557 126.672)" d="M38.297 99.231l71.318-17.616-18.609 70.325-71.507 19.79z"/><path id="Path-4-Copy-2" fill="#371D6E" d="M.887 126.644v26.145l65.515 36.385-.361-26.165z"/><path id="Path-2-Copy" fill="#CD2379" d="M.887 95.492v25.352l65.515 37.178 61.876-35.995V95.521z"/><path id="Rectangle-Copy-9" fill="#371D6E" transform="rotate(45 64.557 95.52)" d="M38.297 68.08l71.318-17.617-18.609 70.326-71.507 19.79z"/><path id="Path-4-Copy" fill="#371D6E" d="M.887 95.492v26.145l65.515 36.385-.361-26.165z"/><path id="Path-2" fill="#CD2379" d="M.887 64.598V89.95l65.515 37.177 61.876-35.994V64.626z"/><path id="Rectangle-Copy-4" fill="#D7C5FD" transform="rotate(45 64.557 64.626)" d="M38.297 37.185l71.318-17.616-18.609 70.325-71.507 19.79z"/><path id="Path-4" fill="#371D6E" d="M.887 64.598v26.144l65.515 36.385-.361-26.165z"/><g id="Group-23" transform="translate(10.72 73.38)" fill="#D7C5FD"><path id="Path-4" d="M0 0v20.025l3.5 2.088V1.898z"/><path id="Path-4-Copy-3" d="M6.88 3.68v20.024l3.501 2.089V5.578z"/><path id="Path-4-Copy-4" d="M14.119 7.455v20.024l3.5 2.09V9.352z"/><path id="Path-4-Copy-5" opacity=".2" d="M21.596 11.697v20.025l3.5 2.089V13.596z"/><path id="Path-4-Copy-6" opacity=".2" d="M28.892 15.807V35.83l3.5 2.089V17.705z"/></g><g id="Group-22" transform="translate(10.72 104.65)"><path id="Path-4-Copy-7" fill="#D7C5FD" d="M0 0v20.025l3.5 2.088V1.898z"/><path id="Path-4-Copy-8" fill="#D7C5FD" d="M6.88 3.68v20.024l3.501 2.089V5.578z"/><path id="Path-4-Copy-9" fill="#EBE2FE" opacity=".2" d="M14.119 7.455v20.024l3.5 2.09V9.352z"/><path id="Path-4-Copy-10" fill="#EBE2FE" opacity=".2" d="M21.596 11.697v20.025l3.5 2.089V13.596z"/><path id="Path-4-Copy-11" fill="#EBE2FE" opacity=".2" d="M28.892 15.807V35.83l3.5 2.089V17.705z"/></g><g id="Group-2" transform="translate(10.503 135.802)"><path id="Path-4-Copy-16" fill="#D7C5FD" d="M0 0v20.025l3.5 2.088V1.898z"/><path id="Path-4-Copy-15" fill="#D7C5FD" d="M6.88 3.68v20.024l3.501 2.089V5.578z"/><path id="Path-4-Copy-14" fill="#D7C5FD" d="M14.119 7.455v20.024l3.5 2.09V9.352z"/><path id="Path-4-Copy-13" fill="#EBE2FE" opacity=".2" d="M21.596 11.697v20.025l3.5 2.089V13.596z"/><path id="Path-4-Copy-12" fill="#EBE2FE" opacity=".2" d="M28.892 15.807V35.83l3.5 2.089V17.705z"/></g><path id="Path-3" fill="#FFD2E9" opacity=".2" d="M71.888 120.457v-18.339l52.905-31.396v18.911z"/><path id="Path-3-Copy" fill="#FFD2E9" opacity=".2" d="M71.725 150.826v-18.339l52.905-31.397v18.912z"/><g id="Group-31" transform="translate(77.936 95.75)"><path d="M1.935 8.07L14.846.33a2.294 2.294 0 013.46 1.722l.019.17a5.34 5.34 0 01-2.565 5.152L3.594 14.665a2.294 2.294 0 01-3.46-1.72l-.111-1.03a3.983 3.983 0 011.912-3.844z" id="Rectangle" fill="#371D6E"/><ellipse id="Oval" fill="#FFF" filter="url(#filter-7)" transform="rotate(10 4.007 10.895)" cx="4.007" cy="10.895" rx="1.775" ry="2.67"/></g><g id="Group-31-Copy" transform="translate(77.773 126.119)"><path d="M1.935 8.07L14.846.33a2.294 2.294 0 013.46 1.722l.019.17a5.34 5.34 0 01-2.565 5.152L3.594 14.665a2.294 2.294 0 01-3.46-1.72l-.111-1.03a3.983 3.983 0 011.912-3.844z" id="Rectangle" fill="#371D6E"/><ellipse id="Oval" fill="#FFF" filter="url(#filter-8)" transform="rotate(10 4.007 10.895)" cx="4.007" cy="10.895" rx="1.775" ry="2.67"/></g><path id="Path-3-Copy-2" fill="#FFD2E9" opacity=".2" d="M71.725 181.978v-18.34l52.905-31.396v18.912z"/><g id="Group-31-Copy-2" transform="translate(77.773 157.27)"><path d="M1.935 8.07L14.846.33a2.294 2.294 0 013.46 1.722l.019.17a5.34 5.34 0 01-2.565 5.152L3.594 14.665a2.294 2.294 0 01-3.46-1.72l-.111-1.03a3.983 3.983 0 011.912-3.844z" id="Rectangle" fill="#371D6E"/><path d="M14.929 6.973c.98 0 1.774-1.195 1.773-2.67 0-1.474-.796-2.67-1.776-2.67s-1.774 1.194-1.773 2.669c0 1.474.796 2.67 1.776 2.67z" id="Oval" fill="#FFF" filter="url(#filter-9)" transform="rotate(10 14.927 4.303)"/></g><path id="Path-5" stroke="#FFF" stroke-width="1.157" d="M.887 95.59l65.515 35.924 61.876-36.022"/><path id="Path-5-Copy" stroke="#FFF" stroke-width="1.157" d="M.695 126.848l65.562 36.075 62.021-36.279"/></g></g><g id="Group-35" transform="translate(0 186.789)"><path d="M93.843 87.27l70.413-38.877a6.124 6.124 0 016.052.075l26.677 15.601a6.124 6.124 0 006.238-.032L310.154 0" id="Path-12" stroke="url(#linearGradient-10)" stroke-width="3.062" stroke-linecap="round" stroke-linejoin="round"/><g id="Group-34" transform="translate(0 30.621)"><path d="M0 59.711l110.156 60.866c1.81 1 4 1.019 5.828.052l92.874-49.175v-9.191L0 49.388V59.71z" id="Path-9" fill="#D7C5FD"/><path d="M95.87 0l112.988 61.9-94.423 48.642a3.062 3.062 0 01-2.874-.036L0 49.388 95.87 0z" id="Rectangle" fill="#FFF"/><g id="Group-24" transform="translate(27.67 8.166)"><g id="Group-25" transform="translate(.89 9.186)"><path id="Rectangle" fill="#371D6E" d="M53.014 0l48.791 26.834L48.792 54.16 0 27.325z"/><path id="Rectangle-Copy-2" fill="#BD9EFF" d="M104.746 30.053l41.544 22.396-10.133 5.22-41.544-22.396z"/><path id="Rectangle-Copy-3" fill="#BD9EFF" d="M91.814 36.57l41.544 22.397-10.133 5.22-41.544-22.396z"/><path id="Rectangle-Copy-7" fill="#BD9EFF" d="M78.542 43.125l41.544 22.396-10.132 5.22L68.41 48.346z"/><path id="Rectangle-Copy-8" fill="#CD2379" d="M62.884 51.488L89.792 65.52l-10.132 5.22-26.908-14.033z"/></g><g id="Group-10" transform="translate(66.172)" fill="#BD9EFF"><ellipse id="Oval" cx="2.55" cy="2.041" rx="2.55" ry="2.041"/><ellipse id="Oval-Copy" cx="10.71" cy="6.124" rx="2.55" ry="2.041"/><ellipse id="Oval-Copy-2" cx="18.871" cy="10.207" rx="2.55" ry="2.041"/></g></g></g></g></g></g></g></g></g></svg>