<svg xmlns="http://www.w3.org/2000/svg" viewBox="0 0 500 500"><g id="freepik--Floor--inject-7"><ellipse id="freepik--floor--inject-7" cx="249.04" cy="344.45" rx="233.2" ry="134.64" style="fill:#fafafa"></ellipse></g><g id="freepik--Shadows--inject-7"><path id="freepik--Shadow--inject-7" d="M320.79,401.77,364.34,427a5.74,5.74,0,0,0,5.2,0l63.85-36.81c1.44-.83,1.44-2.18,0-3L389.84,362a5.75,5.75,0,0,0-5.19,0l-63.86,36.74C319.36,399.59,319.35,400.94,320.79,401.77Z" style="fill:#e0e0e0"></path><path id="freepik--shadow--inject-7" d="M100.52,413.28l1.56.9a3.07,3.07,0,0,0,2.77,0L358.09,268a.84.84,0,0,0,0-1.6l-1.56-.9a3,3,0,0,0-2.78,0L100.52,411.67A.85.85,0,0,0,100.52,413.28Z" style="fill:#e0e0e0"></path><polygon id="freepik--shadow--inject-7" points="432.43 281.01 434.52 278.5 370.89 241.77 366.58 244.26 389.18 257.3 367.49 269.83 344.69 256.67 340.38 259.16 405.51 296.76 406.19 295.94 406.54 296.14 431.52 281.74 431.71 281.86 432.08 281.42 432.61 281.11 432.43 281.01" style="fill:#e0e0e0"></polygon><ellipse id="freepik--shadow--inject-7" cx="428.2" cy="344.91" rx="15.28" ry="8.82" style="fill:#e0e0e0"></ellipse></g><g id="freepik--Gears--inject-7"><path d="M85.64,151.84h0a1,1,0,0,0-1.12.1l-5.4,3.56A1.56,1.56,0,0,1,77,155a13.4,13.4,0,0,0-1-1.29,2.69,2.69,0,0,1-.64-2.57l8.59-5.44L77.44,142h0a1.84,1.84,0,0,0-.43-.17l-4.07-.91A2.22,2.22,0,0,0,70.63,142l-3.83,7.3a4,4,0,0,1-2.31,1.74l-.24.07a9.06,9.06,0,0,0,.34-1.7l-6.43-3.71h0a1.05,1.05,0,0,0-1.21.16l-6.1,4.8a3.43,3.43,0,0,0-1.16,2.59l.37,5.81a4.69,4.69,0,0,1-1,2.81c-1,1.19-2,2.45-2.84,3.75a3.17,3.17,0,0,1-2.48,1.26l-3.93-.2a2.53,2.53,0,0,0-2.25,1.39l-3.69,8.27a1.56,1.56,0,0,0,.63,2h0l4.35,2.51A1.9,1.9,0,0,1,39,182a37.36,37.36,0,0,0-.68,3.94A4.94,4.94,0,0,1,37,188.61l-5.41,5a3.29,3.29,0,0,0-.91,2.67l1,5.89a1.11,1.11,0,0,0,.49.8h0l6.45,3.72.08-7.38a1.56,1.56,0,0,1,2.17.49,12.13,12.13,0,0,0,1.06,1.29,2.66,2.66,0,0,1,.63,2.57l-2.76,7.45a1.37,1.37,0,0,0,.54,1.66h0l6.44,3.71,1.75-4.8L51,205.49a4,4,0,0,1,2.32-1.74,18.76,18.76,0,0,0,2.5-.83,1.39,1.39,0,0,1,1.93.88l1.38,4.57a1.22,1.22,0,0,0,.52.72h0l6.46,3.72L65,205.67l2-1.55a3.4,3.4,0,0,0,1.16-2.59l-.36-5.81a4.56,4.56,0,0,1,1-2.81c1-1.19,2.51-1.83,3.4-3.13.49-.73,1-1.92,1.92-1.88l3.92.2a2.53,2.53,0,0,0,2.25-1.39l3.69-8.27a1.57,1.57,0,0,0-.82-2.09L79.92,175a2,2,0,0,1-1.09-2.19,37.81,37.81,0,0,0,.68-3.94,4.94,4.94,0,0,1,1.32-2.68l5.41-5a3.28,3.28,0,0,0,.9-1.84l4.91-3.83ZM61.08,190c-6.61,5.2-12.94,3.78-14.14-3.16s4.22-15.78,10.83-21S69.7,161,70.89,168,67.7,184.78,61.08,190Z" style="fill:#263238"></path><path d="M36.94,188.67l-5.35,4.91a3.19,3.19,0,0,0-.82,1.54l7.94,4.59v-.42a1.56,1.56,0,0,1,2.17.49h0l7.65-4.42Z" style="fill:#455a64"></path><path d="M50.56,173.78c.61-.93,1.26-1.84,2-2.72l-7.62-4.4a2.9,2.9,0,0,1-1.12.24l-3.93-.2a2.51,2.51,0,0,0-1.62.59L50,174.07Z" style="fill:#455a64"></path><path d="M92.05,155.53a1.05,1.05,0,0,0-1.1.13l-5.41,3.56a1.58,1.58,0,0,1-2.17-.49,10.34,10.34,0,0,0-1.05-1.29,2.69,2.69,0,0,1-.63-2.58l.51-1.38L84.52,152a1,1,0,0,1,1.12-.11h0Z" style="fill:#455a64"></path><path d="M76.08,154c-.07-.07-.12-.15-.18-.22a2.69,2.69,0,0,1-.64-2.57l8.59-5.44L77.44,142h0a1.84,1.84,0,0,0-.43-.17l-4.07-.91A2.22,2.22,0,0,0,70.63,142l-3.83,7.3a3.31,3.31,0,0,1-.87,1l8.65,5Z" style="fill:#455a64"></path><path d="M49.85,152.28l7.94,4.59,6.53-6a9.7,9.7,0,0,0,.27-1.46l-6.43-3.71h0a1.05,1.05,0,0,0-1.21.16l-6.1,4.8A3.33,3.33,0,0,0,49.85,152.28Z" style="fill:#455a64"></path><path d="M93.57,162.26l-1-5.9a1,1,0,0,0-1.61-.7l-5.41,3.56a1.57,1.57,0,0,1-2.16-.49,10.41,10.41,0,0,0-1.06-1.29,2.66,2.66,0,0,1-.63-2.57l2.75-7.46a1.36,1.36,0,0,0-1-1.85l-4.08-.91a2.19,2.19,0,0,0-2.3,1.07L73.23,153a4.07,4.07,0,0,1-2.32,1.74,18.79,18.79,0,0,0-2.51.82,1.37,1.37,0,0,1-1.92-.88l-1.38-4.57a1,1,0,0,0-1.72-.54l-6.1,4.8A3.37,3.37,0,0,0,56.12,157l.36,5.8a4.54,4.54,0,0,1-.95,2.81c-1,1.2-2,2.46-2.83,3.76a3.13,3.13,0,0,1-2.49,1.25l-3.92-.19A2.54,2.54,0,0,0,44,171.79l-3.69,8.27a1.58,1.58,0,0,0,.82,2.1l3.17,1.35a2,2,0,0,1,1.09,2.18,35.12,35.12,0,0,0-.68,3.95,4.88,4.88,0,0,1-1.33,2.68l-5.4,5a3.28,3.28,0,0,0-.91,2.66l1,5.9a1,1,0,0,0,1.61.7l5.4-3.56a1.58,1.58,0,0,1,2.17.49,10.34,10.34,0,0,0,1,1.29,2.69,2.69,0,0,1,.63,2.58l-2.75,7.45a1.35,1.35,0,0,0,1,1.85l4.07.91a2.2,2.2,0,0,0,2.31-1.06l3.83-7.3a4,4,0,0,1,2.31-1.74,20.45,20.45,0,0,0,2.51-.83,1.39,1.39,0,0,1,1.93.88l1.37,4.57a1,1,0,0,0,1.72.54l6.11-4.79a3.47,3.47,0,0,0,1.16-2.59l-.37-5.81a4.62,4.62,0,0,1,1-2.81q1.5-1.8,2.84-3.75a3.14,3.14,0,0,1,2.48-1.26l3.92.19a2.5,2.5,0,0,0,2.26-1.38l3.69-8.27a1.57,1.57,0,0,0-.82-2.09l-3.17-1.36a1.94,1.94,0,0,1-1.09-2.18,37.54,37.54,0,0,0,.68-4,4.91,4.91,0,0,1,1.32-2.67l5.41-5A3.27,3.27,0,0,0,93.57,162.26ZM67.51,193.69c-6.62,5.2-13,3.78-14.15-3.17s3.2-16.79,9.82-22,12.94-3.79,14.14,3.16S74.12,188.49,67.51,193.69Z" style="fill:#37474f"></path><path d="M143.36,223.06,137,219.41h0a1.1,1.1,0,0,0-1,0l-11.43,5.16a1.36,1.36,0,0,1-1.9-.89,25.07,25.07,0,0,0-2.55-5.66,3.15,3.15,0,0,1-.17-2.77l7.62-15.36a1.73,1.73,0,0,0-.68-2.24l-8.27-4.77a1.71,1.71,0,0,0-2.27.53l-9.5,14.28a3.12,3.12,0,0,1-2.48,1.23,23.49,23.49,0,0,0-3.32.16V198.66L94.75,195h0a1.07,1.07,0,0,0-1,.09l-12.84,7.42a3.43,3.43,0,0,0-1.53,2.39l-1.29,14.29a4.79,4.79,0,0,1-1.33,2.67,77.76,77.76,0,0,0-7.14,7.55,2.46,2.46,0,0,1-2.52.72l-8.24-2.88a2,2,0,0,0-2.32.86l-9.44,16.35a2,2,0,0,0,.42,2.43l6.61,5.7a2.45,2.45,0,0,1,.64,2.54,77.88,77.88,0,0,0-3,10,4.78,4.78,0,0,1-1.64,2.49l-11.73,8.25a3.44,3.44,0,0,0-1.31,2.53v14.83a1,1,0,0,0,.45.95h0l6.33,3.65,9.39-4.45a23.94,23.94,0,0,0,1.17,2.19,3.14,3.14,0,0,1,.17,2.77L47,313.66a1.71,1.71,0,0,0,.67,2.23l8.27,4.78a1.73,1.73,0,0,0,2.27-.54l9.5-14.27a3.16,3.16,0,0,1,2.48-1.24,25.47,25.47,0,0,0,6.19-.63,1.36,1.36,0,0,1,1.71,1.21l1.25,12.48a1.08,1.08,0,0,0,.5.87h0l6.32,3.65,7.58-11.14a3.47,3.47,0,0,0,1.53-2.4l1.29-14.29a2.87,2.87,0,0,1,1.64-2.16,30.25,30.25,0,0,0,10-7,2.58,2.58,0,0,1,2.55-.68l5.06,1.78a2,2,0,0,0,2.32-.85l9.44-16.35a2,2,0,0,0-.42-2.44l-4.34-3.74a2.67,2.67,0,0,1-.71-2.57,42.79,42.79,0,0,0,1.18-11.85,3.29,3.29,0,0,1,1.23-2.52l11.73-8.26a3.44,3.44,0,0,0,1.31-2.52l5.61-6.72ZM87.29,281.83c-12,6.92-19.43,2-19.43-11.82s9.9-30.79,21.89-37.7S109,230.42,109,244.26,99.27,274.91,87.29,281.83Z" style="fill:#263238"></path><path d="M125.09,205l2.52-5.08a1.73,1.73,0,0,0-.68-2.24l-8.27-4.77a1.71,1.71,0,0,0-2.27.53l-9.5,14.28a2.45,2.45,0,0,1-.63.61l10.63,6.13Z" style="fill:#455a64"></path><path d="M51,266.61a4,4,0,0,1-.9,1l-11.73,8.25a3.09,3.09,0,0,0-.78.89l7.16,4.13L60.35,272Z" style="fill:#455a64"></path><path d="M58.16,227.15a2.06,2.06,0,0,0-1.66,1l-9.44,16.35a1.94,1.94,0,0,0-.21,1.19l8.14,4.7,12.92-17.48Z" style="fill:#455a64"></path><path d="M79.59,204.05l10.07,5.82,11.43-6.61v-4.6L94.75,195h0a1.07,1.07,0,0,0-1,.09l-12.84,7.42A3.39,3.39,0,0,0,79.59,204.05Z" style="fill:#455a64"></path><path d="M143.82,238.85V224a1,1,0,0,0-1.46-1l-11.43,5.16a1.37,1.37,0,0,1-1.91-.88,25.38,25.38,0,0,0-2.54-5.67,3.15,3.15,0,0,1-.18-2.77l7.62-15.36a1.74,1.74,0,0,0-.67-2.24L125,196.54a1.73,1.73,0,0,0-2.28.53l-9.49,14.28a3.13,3.13,0,0,1-2.49,1.23,25.9,25.9,0,0,0-6.18.63,1.36,1.36,0,0,1-1.71-1.21l-1.26-12.47a1,1,0,0,0-1.54-.79l-12.85,7.41a3.46,3.46,0,0,0-1.53,2.4l-1.28,14.28A4.77,4.77,0,0,1,83,225.5a77.67,77.67,0,0,0-7.13,7.55,2.47,2.47,0,0,1-2.52.72l-8.25-2.88a2,2,0,0,0-2.31.86L53.38,248.1a2,2,0,0,0,.41,2.43l6.62,5.7a2.47,2.47,0,0,1,.64,2.55,75.71,75.71,0,0,0-3,10,4.8,4.8,0,0,1-1.65,2.49L44.7,279.48A3.46,3.46,0,0,0,43.39,282v14.83a1,1,0,0,0,1.46.94l11.43-5.15a1.37,1.37,0,0,1,1.91.88,25.79,25.79,0,0,0,2.54,5.67,3.15,3.15,0,0,1,.18,2.77L53.29,317.3a1.74,1.74,0,0,0,.67,2.24l8.27,4.77a1.74,1.74,0,0,0,2.28-.54L74,309.5a3.16,3.16,0,0,1,2.49-1.24,25.87,25.87,0,0,0,6.18-.62,1.34,1.34,0,0,1,1.71,1.2l1.26,12.48a1,1,0,0,0,1.54.79L100,314.7a3.51,3.51,0,0,0,1.53-2.4L102.84,298a4.8,4.8,0,0,1,1.34-2.67,77.55,77.55,0,0,0,7.13-7.54,2.45,2.45,0,0,1,2.52-.72l8.25,2.88a2,2,0,0,0,2.31-.86l9.44-16.35a2,2,0,0,0-.41-2.44l-6.62-5.7a2.45,2.45,0,0,1-.64-2.54,77.8,77.8,0,0,0,3-9.95,4.69,4.69,0,0,1,1.64-2.49l11.73-8.26A3.47,3.47,0,0,0,143.82,238.85ZM93.61,285.47c-12,6.92-21.7,1.31-21.7-12.52s9.71-30.66,21.7-37.58,21.69-1.31,21.69,12.53S105.59,278.55,93.61,285.47Z" style="fill:#37474f"></path><path d="M143.37,223.06h0a1,1,0,0,0-1,0l-11.43,5.15a1.35,1.35,0,0,1-1.9-.87,24.64,24.64,0,0,0-1.63-4l8.65-3.9a1.08,1.08,0,0,1,1,0h0Z" style="fill:#455a64"></path></g><g id="freepik--Ladder--inject-7"><path d="M406.39,146.48,370.67,243.7h0a1.34,1.34,0,0,1-.63.68,3.58,3.58,0,0,1-3.25,0,1.24,1.24,0,0,1-.67-.81.57.57,0,0,1,0-.26,2.33,2.33,0,0,1,.13-.67l35.82-97.76a2.3,2.3,0,1,1,4.32,1.59Z" style="fill:#37474f"></path><rect x="373.55" y="203.03" width="6" height="41.36" transform="translate(-5.46 437.96) rotate(-60)" style="fill:#37474f"></rect><rect x="399.61" y="187.99" width="6" height="41.36" transform="translate(20.59 453) rotate(-60)" style="fill:#37474f"></rect><path d="M377.25,139.8l19.1-11a5,5,0,0,1,7.72,3.43l31.71,148.37a1.1,1.1,0,0,1,0,.31,1.13,1.13,0,0,1,0,.32,1.2,1.2,0,0,1-.66.79,3.6,3.6,0,0,1-3.26,0,1.36,1.36,0,0,1-.63-.69.39.39,0,0,1,0-.14l-31.69-148a.86.86,0,0,0-.29-.56.83.83,0,0,0-.61.16l-19.11,11" style="fill:#455a64"></path><path d="M408.42,281.59l-11.63-6.72a1.52,1.52,0,0,1-.7-1.2v-.28a1.52,1.52,0,0,1,.7-1.2l27.92-16.12a1.53,1.53,0,0,1,1.38,0l11.64,6.72a1.55,1.55,0,0,1,.7,1.2v.28a1.55,1.55,0,0,1-.7,1.2l-27.92,16.12A1.55,1.55,0,0,1,408.42,281.59Z" style="fill:#FFD230"></path><path d="M396.3,272.71a1.35,1.35,0,0,0-.21.68v.28a1.52,1.52,0,0,0,.7,1.2l11.63,6.72a1.47,1.47,0,0,0,.7.16v-1.64Z" style="opacity:0.1"></path><path d="M409.12,280.11v1.64a1.41,1.41,0,0,0,.69-.16l14-8.06,14-8.06a1.55,1.55,0,0,0,.7-1.2V264a1.35,1.35,0,0,0-.21-.68Z" style="opacity:0.15"></path><path d="M403.38,258l-11.64-6.71a1.56,1.56,0,0,1-.69-1.21v-.27a1.56,1.56,0,0,1,.69-1.21l27.92-16.11a1.49,1.49,0,0,1,1.39,0l11.64,6.71a1.56,1.56,0,0,1,.69,1.21v.27a1.56,1.56,0,0,1-.69,1.21L404.77,258A1.49,1.49,0,0,1,403.38,258Z" style="fill:#FFD230"></path><path d="M391.25,249.11a1.51,1.51,0,0,0-.2.69v.27a1.56,1.56,0,0,0,.69,1.21L403.38,258a1.31,1.31,0,0,0,.69.17v-1.64Z" style="opacity:0.1"></path><path d="M404.07,256.52v1.64a1.35,1.35,0,0,0,.7-.17l14-8.05,14-8.06a1.56,1.56,0,0,0,.69-1.21v-.27a1.51,1.51,0,0,0-.2-.69Z" style="opacity:0.15"></path><path d="M398.33,234.4l-11.63-6.72a1.52,1.52,0,0,1-.7-1.2v-.28a1.52,1.52,0,0,1,.7-1.2l27.91-16.12a1.55,1.55,0,0,1,1.39,0l11.64,6.72a1.54,1.54,0,0,1,.69,1.2v.28a1.54,1.54,0,0,1-.69,1.2L399.72,234.4A1.55,1.55,0,0,1,398.33,234.4Z" style="fill:#FFD230"></path><path d="M386.21,225.52a1.38,1.38,0,0,0-.21.68v.28a1.52,1.52,0,0,0,.7,1.2l5.81,3.36,5.82,3.36a1.45,1.45,0,0,0,.7.17v-1.65Z" style="opacity:0.1"></path><path d="M399,232.92v1.65a1.41,1.41,0,0,0,.69-.17l14-8.06,14-8.06a1.54,1.54,0,0,0,.69-1.2v-.28a1.36,1.36,0,0,0-.2-.68Z" style="opacity:0.15"></path><path d="M393.29,210.81l-11.64-6.72a1.54,1.54,0,0,1-.69-1.2v-.28a1.54,1.54,0,0,1,.69-1.2l27.92-16.12a1.55,1.55,0,0,1,1.39,0L422.59,192a1.52,1.52,0,0,1,.7,1.2v.28a1.52,1.52,0,0,1-.7,1.2l-27.91,16.12A1.55,1.55,0,0,1,393.29,210.81Z" style="fill:#FFD230"></path><path d="M394,209.33V211a1.47,1.47,0,0,0,.7-.16l14-8.06,13.95-8.06a1.52,1.52,0,0,0,.7-1.2v-.28a1.44,1.44,0,0,0-.2-.68Z" style="opacity:0.15"></path><path d="M381.16,201.93a1.34,1.34,0,0,0-.2.68v.28a1.54,1.54,0,0,0,.69,1.2l11.64,6.72a1.41,1.41,0,0,0,.69.16v-1.64Z" style="opacity:0.1"></path><path d="M388.24,187.21,368.9,176.05a1.54,1.54,0,0,1-.69-1.2v-.28a1.54,1.54,0,0,1,.69-1.2l27.92-16.12a1.55,1.55,0,0,1,1.39,0l19.34,11.16a1.54,1.54,0,0,1,.69,1.21v.27a1.56,1.56,0,0,1-.69,1.21l-27.92,16.11A1.49,1.49,0,0,1,388.24,187.21Z" style="fill:#FFD230"></path><path d="M388.94,185.73v1.65a1.41,1.41,0,0,0,.69-.17l14-8.06,14-8.05a1.56,1.56,0,0,0,.69-1.21v-.27a1.37,1.37,0,0,0-.2-.69Z" style="opacity:0.15"></path><path d="M368.41,173.89a1.47,1.47,0,0,0-.2.68v.28a1.54,1.54,0,0,0,.69,1.2l19.34,11.16a1.42,1.42,0,0,0,.7.17v-1.65Z" style="opacity:0.1"></path><path d="M380.35,161.52l-35.69,97.1v0l-.08.22a1.49,1.49,0,0,1-.58.56,3.6,3.6,0,0,1-3.26,0,1.23,1.23,0,0,1-.66-.8,1.13,1.13,0,0,1,0-.26,2,2,0,0,1,.13-.68L376,159.93a2.31,2.31,0,0,1,4.33,1.59Z" style="fill:#37474f"></path><path d="M379.55,143.79a3.57,3.57,0,0,0-1.53,3.45L409.74,295.6a1.49,1.49,0,0,1,.05.36v.26a1.27,1.27,0,0,1-.67.81,3.58,3.58,0,0,1-3.25,0,1.45,1.45,0,0,1-.64-.67v0l0-.19L373.51,148.21a8.23,8.23,0,0,1,3.74-8.41" style="fill:#455a64"></path></g><g id="freepik--Window--inject-7"><path d="M359.48,27a3.24,3.24,0,0,0-1.36-3l-4.35-2.53a3.24,3.24,0,0,0-3.26.33L103.75,164.28a10.22,10.22,0,0,0-4.62,8v219.8a3.23,3.23,0,0,0,1.36,3l4.33,2.52a3.23,3.23,0,0,0,3.27-.32l246.76-142.5a10.2,10.2,0,0,0,4.63-8Z" style="fill:#e0e0e0"></path><path d="M358.12,24a3.21,3.21,0,0,0-3.26.32L108.09,166.8a9.54,9.54,0,0,0-3.27,3.45l-4.34-2.51a9.44,9.44,0,0,1,3.28-3.46L350.52,21.78a3.26,3.26,0,0,1,3.26-.33Z" style="fill:#FFD230"></path><path d="M358.12,24a3.21,3.21,0,0,0-3.26.32L108.09,166.8a9.54,9.54,0,0,0-3.27,3.45l-4.34-2.51a9.44,9.44,0,0,1,3.28-3.46L350.52,21.78a3.26,3.26,0,0,1,3.26-.33Z" style="fill:#fff;opacity:0.7000000000000001"></path><path d="M108.09,166.8,354.85,24.3c2.56-1.47,4.63-.28,4.63,2.67v219.8a10.2,10.2,0,0,1-4.63,8L108.09,397.28c-2.55,1.48-4.62.28-4.62-2.67V174.81A10.24,10.24,0,0,1,108.09,166.8Z" style="fill:#f0f0f0"></path><path d="M104.82,170.25a9.55,9.55,0,0,0-1.35,4.56v14.7L99.13,187V172.29a9.37,9.37,0,0,1,1.35-4.55Z" style="fill:#FFD230"></path><path d="M104.82,170.25a9.55,9.55,0,0,0-1.35,4.56v14.7L99.13,187V172.29a9.37,9.37,0,0,1,1.35-4.55Z" style="opacity:0.1"></path><path d="M359.48,27c0-2.95-2.07-4.14-4.63-2.67L108.09,166.8a10.24,10.24,0,0,0-4.62,8v14.71l256-147.84Z" style="fill:#FFD230"></path><polygon points="112.14 194.52 112.14 334.81 207.61 279.7 207.61 174.62 146.86 174.47 112.14 194.52" style="fill:#FFD230"></polygon><path d="M173,218.71a4.07,4.07,0,0,1-2.07-.54c-1.47-.85-2.28-2.58-2.28-4.86h0a15.22,15.22,0,0,1,6.88-11.93c2-1.14,3.88-1.3,5.35-.45s2.29,2.57,2.29,4.86a15.23,15.23,0,0,1-6.89,11.92A6.66,6.66,0,0,1,173,218.71Zm5.81-16.82a5.23,5.23,0,0,0-2.53.79,13.59,13.59,0,0,0-6.13,10.63h0c0,1.73.54,3,1.53,3.56s2.35.41,3.85-.45a13.6,13.6,0,0,0,6.14-10.63c0-1.73-.55-3-1.54-3.56A2.52,2.52,0,0,0,178.78,201.89Z" style="fill:#fafafa"></path><path d="M120.82,320.53a.69.69,0,0,1-.37-.1.75.75,0,0,1-.38-.65V199.53a.75.75,0,0,1,.38-.65l39.05-22.55a.79.79,0,0,1,.42-.1L199,178.74a.75.75,0,0,1,.7.75v95.2a.76.76,0,0,1-.38.65l-78.1,45.09A.75.75,0,0,1,120.82,320.53ZM121.57,200V318.48l76.61-44.23V180.19l-38.13-2.45Z" style="fill:#fafafa"></path><path d="M165.84,249.44a.72.72,0,0,1-.44-.14.75.75,0,0,1-.16-1.05L181,226.64a.75.75,0,0,1,1-.16L199.37,239a.76.76,0,0,1,.17,1.05.75.75,0,0,1-1,.17l-16.75-12.09-15.29,21A.74.74,0,0,1,165.84,249.44Z" style="fill:#fafafa"></path><path d="M120.82,285.46a.69.69,0,0,1-.34-.09.75.75,0,0,1-.32-1l26-50.1a.76.76,0,0,1,.5-.39.77.77,0,0,1,.62.13l30.37,22.55a.76.76,0,0,1,.16,1.05.75.75,0,0,1-1.05.15l-29.67-22-25.63,49.32A.76.76,0,0,1,120.82,285.46Z" style="fill:#fafafa"></path><path d="M146.86,174.48s15,4.55,19.57,12.52c4,6.94,4.14,10,4.14,10s25.67-5.42,37-22.4Z" style="opacity:0.1"></path><path d="M146.86,174.48s23.46,2.5,30.37,23.69c13-4.4,23.5-11.85,30.38-23.55Z" style="fill:#FFD230"></path><path d="M146.86,174.48s23.46,2.5,30.37,23.69c13-4.4,23.5-11.85,30.38-23.55Z" style="fill:#fff;opacity:0.7000000000000001"></path><path d="M305.81,174.92c-.73.55-1.93,2.42-3.23,5.77a7.89,7.89,0,0,0,3.56-3.28c.22-.39.9-1.71.42-2.39A.45.45,0,0,0,305.81,174.92Z" style="fill:#FFD230"></path><path d="M293.19,171.3a1.62,1.62,0,0,0-.88,1.18,6.58,6.58,0,0,0,.59,4.19,11.18,11.18,0,0,0,1.08-5C293.9,171.23,293.74,171,293.19,171.3Z" style="fill:#FFD230"></path><path d="M279.46,188.31l-.16.05a1.77,1.77,0,0,0-.65.85,1.7,1.7,0,0,0,.19,2.08c.64.62,1.84.64,3.4-.27C281.23,188.85,280.17,188.12,279.46,188.31Z" style="fill:#FFD230"></path><path d="M294.78,141.6c-14.57,7.41-27.2,28.68-28.21,47.52-1.45,27.08,15.59,22.8,15,33.72a3.06,3.06,0,0,0,2.41,3.45c3.41.85,9.17-2.08,12.86-6.54a11.39,11.39,0,0,0,2.93-6.16h0c.58-10.92,18.1-24.19,19.55-51.27C320.33,143.47,309.34,134.2,294.78,141.6Zm12.85,36.92a11.67,11.67,0,0,1-6.19,5.39c-.67,2.08-1.34,4.54-2,7.39a149.93,149.93,0,0,0-3.42,24.1,2.57,2.57,0,0,1-1.14,2h0c-.6.3-1.05-.07-1-.83a153.47,153.47,0,0,1,3.52-24.86c.59-2.68,1.25-5.16,1.95-7.4a7.7,7.7,0,0,1-2.69-.35,9.14,9.14,0,0,1-4-2.47,47.22,47.22,0,0,1-4.5,6.8,30,30,0,0,1-2.88,3.17,43.85,43.85,0,0,1,1.25,5.78,116.13,116.13,0,0,1,1,22.58,2.6,2.6,0,0,1-1.19,1.94c-.6.29-1-.11-1-.9a114.16,114.16,0,0,0-.95-21.87,39.7,39.7,0,0,0-1.27-5.75c-2.69,1.85-4.79,1.9-5.95.78s-1.22-3.35-.16-5.57a5.38,5.38,0,0,1,3-3.11c1.69-.43,3.24,1,4.48,4a26.16,26.16,0,0,0,2.61-2.85,41.93,41.93,0,0,0,4.31-6.59,9.61,9.61,0,0,1-1.17-7.1,6.46,6.46,0,0,1,3.08-4.29c1.44-.74,2.48-.24,2.77,1.31.34,1.8-.36,5-2,8.72a8.21,8.21,0,0,0,3.82,2.46,6.59,6.59,0,0,0,2.45.28c1.63-4.45,3.43-7.58,5.17-8.89,1.16-.86,2.2-.83,2.87.1C309.29,173.7,309,176.13,307.63,178.52Z" style="fill:#FFD230"></path><path d="M295.12,135.24c-1,.5-1.74-.13-1.67-1.41l.71-13.34a4.17,4.17,0,0,1,1.92-3.22c1-.5,1.73.13,1.66,1.41L297,132A4.21,4.21,0,0,1,295.12,135.24Z" style="fill:#FFD230"></path><path d="M278.54,149.14c-.89,1.08-2,1.26-2.4.4l-4.53-8.93a3.66,3.66,0,0,1,.82-3.5c.89-1.07,2-1.25,2.4-.39l4.54,8.93A3.67,3.67,0,0,1,278.54,149.14Z" style="fill:#FFD230"></path><path d="M265.81,170.6c-.56,1.36-1.67,2.3-2.49,2.09l-8.58-2.13c-.82-.2-1-1.47-.48-2.83s1.67-2.29,2.49-2.09l8.57,2.13C266.14,168,266.36,169.25,265.81,170.6Z" style="fill:#FFD230"></path><path d="M260.32,193.86a4.16,4.16,0,0,1-1.91,3.23l-10.31,5.24c-1,.5-1.74-.13-1.67-1.41a4.16,4.16,0,0,1,1.91-3.22l10.32-5.24C259.64,192,260.39,192.59,260.32,193.86Z" style="fill:#FFD230"></path><path d="M263.55,212.7a3.64,3.64,0,0,1-.82,3.49l-9.29,11.21c-.89,1.07-2,1.25-2.4.39a3.67,3.67,0,0,1,.83-3.49l9.29-11.21C262.05,212,263.12,211.84,263.55,212.7Z" style="fill:#FFD230"></path><path d="M319.92,184.05c.56-1.36,1.67-2.29,2.49-2.09l8.58,2.13c.82.21,1,1.47.48,2.83s-1.67,2.3-2.49,2.09l-8.57-2.13C319.59,186.68,319.37,185.41,319.92,184.05Z" style="fill:#FFD230"></path><path d="M325.41,160.79a4.15,4.15,0,0,1,1.91-3.22l10.31-5.24c1-.51,1.74.12,1.67,1.4a4.21,4.21,0,0,1-1.91,3.23l-10.32,5.24C326.08,162.7,325.34,162.07,325.41,160.79Z" style="fill:#FFD230"></path><path d="M322.17,142a3.67,3.67,0,0,1,.83-3.49l9.28-11.21c.9-1.08,2-1.25,2.4-.4a3.66,3.66,0,0,1-.82,3.5l-9.29,11.21C323.68,142.64,322.61,142.82,322.17,142Z" style="fill:#FFD230"></path><path d="M311.09,132.61c-.83-.21-1-1.47-.49-2.83l5.77-14.17c.56-1.36,1.67-2.3,2.49-2.09s1,1.47.49,2.83l-5.77,14.17C313,131.88,311.91,132.81,311.09,132.61Z" style="fill:#FFD230"></path><path d="M295.12,135.24c-1,.5-1.74-.13-1.67-1.41l.71-13.34a4.17,4.17,0,0,1,1.92-3.22c1-.5,1.73.13,1.66,1.41L297,132A4.21,4.21,0,0,1,295.12,135.24Z" style="fill:#455a64"></path><path d="M278.54,149.14c-.89,1.08-2,1.26-2.4.4l-4.53-8.93a3.66,3.66,0,0,1,.82-3.5c.89-1.07,2-1.25,2.4-.39l4.54,8.93A3.67,3.67,0,0,1,278.54,149.14Z" style="fill:#455a64"></path><path d="M265.81,170.6c-.56,1.36-1.67,2.3-2.49,2.09l-8.58-2.13c-.82-.2-1-1.47-.48-2.83s1.67-2.29,2.49-2.09l8.57,2.13C266.14,168,266.36,169.25,265.81,170.6Z" style="fill:#455a64"></path><path d="M260.32,193.86a4.16,4.16,0,0,1-1.91,3.23l-10.31,5.24c-1,.5-1.74-.13-1.67-1.41a4.16,4.16,0,0,1,1.91-3.22l10.32-5.24C259.64,192,260.39,192.59,260.32,193.86Z" style="fill:#455a64"></path><path d="M263.55,212.7a3.64,3.64,0,0,1-.82,3.49l-9.29,11.21c-.89,1.07-2,1.25-2.4.39a3.67,3.67,0,0,1,.83-3.49l9.29-11.21C262.05,212,263.12,211.84,263.55,212.7Z" style="fill:#455a64"></path><path d="M319.92,184.05c.56-1.36,1.67-2.29,2.49-2.09l8.58,2.13c.82.21,1,1.47.48,2.83s-1.67,2.3-2.49,2.09l-8.57-2.13C319.59,186.68,319.37,185.41,319.92,184.05Z" style="fill:#455a64"></path><path d="M325.41,160.79a4.15,4.15,0,0,1,1.91-3.22l10.31-5.24c1-.51,1.74.12,1.67,1.4a4.21,4.21,0,0,1-1.91,3.23l-10.32,5.24C326.08,162.7,325.34,162.07,325.41,160.79Z" style="fill:#455a64"></path><path d="M322.17,142a3.67,3.67,0,0,1,.83-3.49l9.28-11.21c.9-1.08,2-1.25,2.4-.4a3.66,3.66,0,0,1-.82,3.5l-9.29,11.21C323.68,142.64,322.61,142.82,322.17,142Z" style="fill:#455a64"></path><path d="M311.09,132.61c-.83-.21-1-1.47-.49-2.83l5.77-14.17c.56-1.36,1.67-2.3,2.49-2.09s1,1.47.49,2.83l-5.77,14.17C313,131.88,311.91,132.81,311.09,132.61Z" style="fill:#455a64"></path><path d="M299.87,217l-.46,8.68a11.75,11.75,0,0,1-3,6.35c-3.8,4.59-9.76,7.62-13.27,6.74-1.84-.44-2.63-1.88-2.44-3.8l.42-7.8a3.12,3.12,0,0,0,2.49,2.92c3.5.88,9.46-2.15,13.26-6.74A11.54,11.54,0,0,0,299.87,217Z" style="fill:#FFD230"></path><path d="M299.87,217l-.46,8.68a11.75,11.75,0,0,1-3,6.35c-3.8,4.59-9.76,7.62-13.27,6.74-1.84-.44-2.63-1.88-2.44-3.8l.42-7.8a3.12,3.12,0,0,0,2.49,2.92c3.5.88,9.46-2.15,13.26-6.74A11.54,11.54,0,0,0,299.87,217Z" style="opacity:0.35000000000000003"></path></g><g id="freepik--paint-pot--inject-7"><g id="freepik--paint-pot--inject-7"><path d="M441.25,323l-25.54-.35-.22,20.86h0c0,1.88,1.21,3.78,3.68,5.25,5,2.93,13,3,18.06.2,2.53-1.43,3.8-3.32,3.79-5.23Z" style="fill:#37474f"></path><path d="M419.51,317.48c-5,2.82-5.07,7.49-.11,10.42s13,3,18.06.2,5.06-7.5.11-10.43S424.53,314.65,419.51,317.48Z" style="fill:#455a64"></path><path d="M440.15,322.91a3.25,3.25,0,0,1-.18,1,6.2,6.2,0,0,1-3.06,3.22,17.56,17.56,0,0,1-8.5,1.92A17.35,17.35,0,0,1,420,327a6.22,6.22,0,0,1-3-3.22,3.29,3.29,0,0,1-.18-1.07c0-1.56,1.17-3.06,3.24-4.21a17.08,17.08,0,0,1,8.49-1.92,17.25,17.25,0,0,1,8.46,2.1C439.05,319.84,440.16,321.35,440.15,322.91Z" style="fill:#263238"></path><path d="M440,323.91a6.2,6.2,0,0,1-3.06,3.22,17.56,17.56,0,0,1-8.5,1.92A17.35,17.35,0,0,1,420,327a6.22,6.22,0,0,1-3-3.22,6.08,6.08,0,0,1,3.06-3.21,17.18,17.18,0,0,1,8.49-1.93A17.36,17.36,0,0,1,437,320.7,6.25,6.25,0,0,1,440,323.91Z" style="fill:#FFD230"></path><path d="M433.92,330.8c.56-.31,1-.05,1,.6a2.21,2.21,0,0,1-1,1.73c-.56.32-1,.05-1-.59A2.25,2.25,0,0,1,433.92,330.8Z" style="fill:#263238"></path><path d="M415.67,326.31c-1.4,2.76-4.2,9.35-.57,12l.44.31V340c-.36-.22-.74-.47-1.1-.74-5.41-4,.7-14.32,1-14.75a.57.57,0,0,1,.31-.24Z" style="fill:#e0e0e0"></path><path d="M434.4,332.23c-.16.32-4.1,7.86-10.59,9.38a9.51,9.51,0,0,1-2.24.26,11.33,11.33,0,0,1-6-1.89v-1.33a9.88,9.88,0,0,0,8,1.89c6-1.41,9.82-8.76,9.85-8.83a.56.56,0,0,1,.75-.23A.54.54,0,0,1,434.4,332.23Z" style="fill:#e0e0e0"></path></g></g><g id="freepik--Canvas--inject-7"><path d="M430.41,384a1.82,1.82,0,0,0-1.08-1.5l-39.49-22.8a5.72,5.72,0,0,0-5.19,0l-59.8,34.53a1.8,1.8,0,0,0-1.07,1.5v4.69a1.82,1.82,0,0,0,1.07,1.5l39.49,22.79a5.72,5.72,0,0,0,5.19,0l59.8-34.52a1.82,1.82,0,0,0,1.08-1.5Z" style="fill:#f0f0f0"></path><path d="M366.94,420.63v4.69a5.37,5.37,0,0,1-2.6-.62l-39.49-22.8a1.8,1.8,0,0,1-1.07-1.5v-4.69a1.81,1.81,0,0,0,1.07,1.5L364.34,420A5.26,5.26,0,0,0,366.94,420.63Z" style="fill:#e6e6e6"></path><path d="M324.85,394.22l59.8-34.53a5.72,5.72,0,0,1,5.19,0l39.49,22.8c1.44.83,1.44,2.17,0,3L369.53,420a5.72,5.72,0,0,1-5.19,0l-39.49-22.79C323.42,396.39,323.42,395,324.85,394.22Z" style="fill:#fff"></path><path d="M389.84,359.69a5.72,5.72,0,0,0-5.19,0l-59.8,34.53c-1.43.82-1.43,2.17,0,3L339,405.38h0s14.89,3.58,21.22-.57,3.68-14.26,11.76-17,20.36.81,31.51-3.07,11.36-10.6,11.36-10.6h0Z" style="fill:#FFD230"></path><path d="M389.84,359.69a5.72,5.72,0,0,0-5.19,0l-59.8,34.53c-1.43.82-1.43,2.17,0,3L339,405.38h0s14.89,3.58,21.22-.57,3.68-14.26,11.76-17,20.36.81,31.51-3.07,11.36-10.6,11.36-10.6h0Z" style="fill:#FFD230"></path><path d="M323.78,395.71v4.69a1.8,1.8,0,0,0,1.07,1.5L339,410.07v-4.69h0l-14.14-8.17A1.81,1.81,0,0,1,323.78,395.71Z" style="fill:#FFD230"></path><path d="M323.78,395.71v4.69a1.8,1.8,0,0,0,1.07,1.5L339,410.07v-4.69h0l-14.14-8.17A1.81,1.81,0,0,1,323.78,395.71Z" style="opacity:0.1"></path></g><g id="freepik--character-2--inject-7"><path d="M293,355.16c-.7-1.56,2.91-3,5.48-2.7,1.18.13,2.71,1.08,3.87,1.14,1.77.08,3.91-.49,5.82-.43,2.82.08,3.21,2.09,2.71,3.64s-4,2.86-4,2.86L300,358C296.64,357.6,294.1,356.8,293,355.16Z" style="fill:#455a64"></path><path d="M309,356c-.91,0-.35,3.28-1.44,4-.57.4-4.15-2.19-6.11-2.78s-6.64.16-8.38-2.12a3.91,3.91,0,0,0,1.16,1.6,48.33,48.33,0,0,0,7.58,4.91c2.75,1.34,9,3.65,9,3.65Z" style="fill:#263238"></path><path d="M339.91,370.77c.24,5.87-9.37,7-17.8,3-6.37-3-9.22-5.22-15-9.55-7.18-5.36-9.52-15.56-4.21-23.15l24.41-1.26c4.25,4.92,19.54,11.46,24.65,23.11,2.46,6.15-6,9.39-12,7.86Z" style="fill:#FFD230"></path><path d="M339.91,370.77c.24,5.87-9.37,7-17.8,3-6.37-3-9.22-5.22-15-9.55-7.18-5.36-9.33-13.49-4.21-23.15l24.41-1.26c4.25,4.92,19.54,11.46,24.65,23.11,2.46,6.15-6,9.39-12,7.86Z" style="opacity:0.35000000000000003"></path><path d="M339.91,370.77c-.64-5.52-4.84-8.25-8.45-10.92s-11.19-7.32-11.19-7.32a8.09,8.09,0,0,0,7.23-2.68,5.25,5.25,0,0,1-2.43,3.74s10.49,6,13.63,11.09A8.56,8.56,0,0,1,339.91,370.77Z" style="opacity:0.22"></path><path d="M361.24,310.08c-2.33-3.35-3.54-2.42-4.44.64a14.9,14.9,0,0,1-1.88,4c0-1-2.55.49-2.71,2.61a3.13,3.13,0,0,1-.6,1.76c-2,2.56-7.81,6.93-11.91,10.09l-11-14.1c-3.75-4.8-5-6.66-9.33-7.13a8.86,8.86,0,0,1,3.36,2.64c1.7,2-.47,11.63-.47,11.63s13,13.24,14.3,14.52a7.46,7.46,0,0,0,.61.53,3.71,3.71,0,0,0,4.59-.07c3.8-3.06,9.7-9.56,12.74-13.05,2.06-2.36,3.14-3.28,4.46-4.6C361.83,316.67,362.69,312.18,361.24,310.08Z" style="fill:#a66868"></path><path d="M310.47,308.17h0c-5.74.4-6.14,3.17-7.58,6.2a9.84,9.84,0,0,0-.27,7.39l4,11.57s-1.55,3.45-3.72,7.73c10,5.6,22.24,3.73,25.26-.36.12-.86-.65-7.64-1.13-12.07,1.77-4.43,2.23-7.24,1.49-10.17-1.39-5.44-6.76-10.74-9.14-10.55Z" style="fill:#FFD230"></path><path d="M305.81,335.09c-.35.74-.79,1.67-1.31,2.74q-.13.27-.27.57l-.37.73c-.3.62-.62,1.26-1,1.93.37.21.74.4,1.12.58a27.48,27.48,0,0,0,19.17,2,29.22,29.22,0,0,1-10.15-.44,6.06,6.06,0,0,1-4.52-7.39c0-.12.07-.23.1-.32a2,2,0,0,1,2-1.34,5.85,5.85,0,0,1-2.5-3.74l-.53-1.61a18.83,18.83,0,0,1-.18-11.29l0-.1L303.2,315l-.74.52h0a9.64,9.64,0,0,0-.4,2.32h0c0,.2,0,.4,0,.61a2.62,2.62,0,0,0,0,.28l0,.51c0,.13,0,.27.05.4l.06.43c0,.17.07.34.11.52s0,.21.07.32c.07.29.16.57.25.84l4,11.57Z" style="opacity:0.1"></path><path d="M328.28,306.32H315.69a12.15,12.15,0,0,1-12.16-12.16v-2.54a12.84,12.84,0,0,1,12.84-12.84h0a11.91,11.91,0,0,1,11.91,11.91Z" style="fill:#263238"></path><path d="M324.17,285.7c.64.33,2.36,3.6,2.19,10.76-.14,6.06-2.1,7.55-3.09,8s-2.89.17-4.74-.14v3.63s2.56,3,2.4,4.64-3.69,2.06-6.09.43a15.3,15.3,0,0,1-3.92-4.11v-8.79a2.32,2.32,0,0,1-3.29.31c-2.05-1.35-2.12-4.71-.94-5.92s3.75-.82,4.23.85c0,0,3,.53,7-2.06C322.27,290.5,323.61,288.27,324.17,285.7Z" style="fill:#a66868"></path><path d="M325.16,292.48l-1.69-.81a.89.89,0,0,1,1.22-.46A1,1,0,0,1,325.16,292.48Z" style="fill:#263238"></path><path d="M318.15,291.94l-1.58,1a.89.89,0,0,1,.26-1.28A1,1,0,0,1,318.15,291.94Z" style="fill:#263238"></path><path d="M310.85,293.67l.1,3.71a1.79,1.79,0,0,0,1.84-1.84A2,2,0,0,0,310.85,293.67Z" style="fill:#263238"></path><path d="M309.09,281.78l-1.6-3.35a1.8,1.8,0,0,0-.94,2.43A2,2,0,0,0,309.09,281.78Z" style="fill:#263238"></path><path d="M308.23,281.57l-3.7-.33a1.81,1.81,0,0,0,1.63,2A1.94,1.94,0,0,0,308.23,281.57Z" style="fill:#263238"></path><path d="M318.92,294.7a.77.77,0,1,1-1.53.07.77.77,0,0,1,.72-.82A.78.78,0,0,1,318.92,294.7Z" style="fill:#263238"></path><path d="M319.8,300.07l1.77.57a.91.91,0,0,1-1.15.63A1,1,0,0,1,319.8,300.07Z" style="fill:#854848"></path><path d="M324.81,294.38a.76.76,0,1,1-.8-.75A.78.78,0,0,1,324.81,294.38Z" style="fill:#263238"></path><polygon points="321.09 293.95 321.21 298.53 323.62 297.79 321.09 293.95" style="fill:#854848"></polygon><path d="M318.53,304.31c-1.95-.26-6-1.41-6.58-3a4.14,4.14,0,0,0,1.4,2c1.2,1,5.18,2.18,5.18,2.18Z" style="fill:#854848"></path><path d="M315.74,355.4c3.4-2.26,2.49-3.48-.55-4.46a14,14,0,0,1-3.62-1.69,6.85,6.85,0,0,0,2-.16,1.38,1.38,0,0,0,1.15-1.51c-.06-.29-.78-.08-2-.36-1.54-.37-2.29-1-4-1a2.66,2.66,0,0,1-1.76-.63c-2.51-2.08-6.62-8.32-9.7-12.48,3-3.36,9.71-13.61,9.71-13.61a9.82,9.82,0,0,0,.76-10.86c-2.88.3-5.67,3.18-9.21,8.64-7.92,12.22-11,14.72-8.82,17.91,2.79,4,8.54,10.05,11.7,13.43a45.83,45.83,0,0,0,5,4.32C311,356.61,313.61,356.81,315.74,355.4Z" style="fill:#a66868"></path><path d="M357.57,307.21v10.06a.67.67,0,0,1-.39.54,2.06,2.06,0,0,1-1.87,0,.67.67,0,0,1-.39-.54V307.21Z" style="fill:#455a64"></path><polygon points="354.92 309.8 357.56 311.33 357.56 307.21 354.92 307.21 354.92 309.8" style="fill:#37474f"></polygon><path d="M353.59,299.15v2l-1.77-1v4.21a4.38,4.38,0,0,0,2,3.44l3.11,1.8a1.43,1.43,0,0,0,1.34.17s1.57-.88,1.89-1.09a1.43,1.43,0,0,0,.53-1.25v-4.21Z" style="fill:#37474f"></path><path d="M356.91,309.62l-3.11-1.8a4.38,4.38,0,0,1-2-3.44v-4.21l7.08,4.09v4.21C358.9,309.74,358,310.25,356.91,309.62Z" style="fill:#455a64"></path><polygon points="358.9 304.26 351.82 300.17 351.82 294.03 358.91 298.13 358.9 304.26" style="fill:#f0f0f0"></polygon><polygon points="358.9 304.26 358.91 298.13 360.68 297.1 360.68 303.24 358.9 304.26" style="fill:#e0e0e0"></polygon><polygon points="358.9 306.09 351.82 302 351.81 302.83 358.9 306.97 358.9 306.09" style="fill:#FFD230"></polygon><polygon points="358.9 306.09 360.68 305.07 360.67 305.95 358.9 306.97 358.9 306.09" style="fill:#FFD230"></polygon><polygon points="358.9 306.09 360.68 305.07 360.67 305.95 358.9 306.97 358.9 306.09" style="opacity:0.1"></polygon><path d="M360.68,299s-.6,1.46-1.77,1.54v-2.39l1.77-1Z" style="fill:#FFD230"></path><path d="M360.68,299s-.6,1.46-1.77,1.54v-2.39l1.77-1Z" style="opacity:0.1"></path><path d="M358.91,300.52a2.53,2.53,0,0,1-2.42-.29c-.84-.63-1.13-2.83-2.75-2.87a2.59,2.59,0,0,0-1.92,1.17V294l7.09,4.1Z" style="fill:#FFD230"></path><polygon points="351.82 294.03 353.59 293.01 360.68 297.1 358.91 298.13 351.82 294.03" style="fill:#FFD230"></polygon><polygon points="351.82 294.03 353.59 293.01 360.68 297.1 358.91 298.13 351.82 294.03" style="fill:#fff;opacity:0.7000000000000001"></polygon><path d="M352.16,317.67a12.36,12.36,0,0,1,.25-4.09c.46-1.2,2.6-2.84,3.33-3.31s1.45.05,1.07,1.42-1,1.77-1.45,2.72a4,4,0,0,0-.44,1.54Z" style="fill:#a66868"></path></g><g id="freepik--character-1--inject-7"><path d="M198.07,206.4a3,3,0,0,0-3.09-.29l-21.65,12.5a3,3,0,0,0-1.3,2.82,9.58,9.58,0,0,0,4.34,7.51,3,3,0,0,0,3.1.28l21.62-12.48a3,3,0,0,0,1.31-2.83A9.58,9.58,0,0,0,198.07,206.4Z" style="opacity:0.1"></path><path d="M228.44,294.43s-6.91.29-8.86.26c-5-5.16-12.29-12.59-13.85-14.7-2.13-3.94-3.95-7.6-5.77-7.9s-5.78.69-6.73,2.41c-.67,1.19.82,4.61,2.11,3.76.62,1.11,1.3,4,4.62,5.06,5.15,6.17,11,14.15,14.23,17.92a4.81,4.81,0,0,0,6.21.34Z" style="fill:#ffa8a7"></path><path d="M249.08,407.91c.42.17.51,1,.54,2.62,0,1.24.24,3.39-1.22,3.79s-3.56.13-4.46-1.05c-1.12-1.48-1.87-2.77-3.48-4.58-1.4-1.56-2.91-3-3.44-5.2-.48-1.95,0-2.79,1.32-3.32,1.84-.74,4.65,1.86,6.07,2.3C245.63,402.84,248.65,407.74,249.08,407.91Z" style="fill:#263238"></path><path d="M249.11,406.4l-.05,2a4.88,4.88,0,0,1-5.05,0c-.09-.19-.46-2.87-.46-2.87Z" style="fill:#ffa8a7"></path><path d="M232.62,419.07s.53,1.75.81,3.28c.22,1.22.52,3.24.08,4.14s-2.11,1.45-4.67,1.38c-1.66-.05-4.27,1-6.06,2s-5.66,1.3-7.59,1c-2.27-.32-4.6-1.69-4.95-2.64s.17-1.92,5.59-4.09c0,0,7.52-2.27,10.18-5.07Z" style="fill:#263238"></path><path d="M232.67,416.91s0,1.48,0,2.33-1.05,2.09-3.64,1.94c-1.82-.11-3.08-.63-3-2.12l.05-2.17Z" style="fill:#ffa8a7"></path><path d="M251,379.89a54.26,54.26,0,0,0-2.13-10.47s.92-9,1.45-17.49c.58-9.19.45-20.77.68-23.06,0,0-29.57-6.68-30.34,3.95s.33,37.75.57,42.43,1,8.83,1.76,16.43,3.06,25.21,3.06,25.21a7,7,0,0,0,6.61,0s2.57-21.23,2.47-26.63a46,46,0,0,0-1.78-11.81s.76-8.76,1.43-16.38,1.28-11.28,1.47-14.59l.64-.31s.36,13.18.6,17.87.89,9.18,2.05,17.89c1,7.55,4.14,23.57,4.14,23.57,3.35,1.91,5.42-.12,5.42-.12S251.78,386.44,251,379.89Z" style="fill:#37474f"></path><path d="M236.26,347.5s7.28-3.39,11-6.51c0,0-3.45,4.64-7.9,6.63,0,0-1.93,16.32-1.91,16l-.54-16.13Z" style="fill:#263238"></path><polygon points="231.1 286.5 232.76 296.24 241.94 295.44 240.03 284.77 231.1 286.5" style="fill:#ffa8a7"></polygon><path d="M250.74,295.61c-.8-2.65-4.08-5.58-7.43-5l-2.18.37c0,1.7-4.68,2.92-9,1.91-1.29.34-2.48.69-3.55,1-3.08,1-5.93,3.6-6.41,13.65,0,0-1.55,23.42-1.67,27.95a37.15,37.15,0,0,0,20,2.44c9.23-1.8,10.42-5.59,10.42-5.59s.5-16.85.39-24.14C251.27,302,251.3,297.43,250.74,295.61Z" style="fill:#FFD230"></path><path d="M225,273.83s-2.69,3.18-2.47,3.55,1.85.88,1.85.88Z" style="fill:#f28f8f"></path><path d="M232.45,265c-4.73.42-7,2.1-7.86,9.59-.87,7.68-.22,10.38.66,11.53.59.78,3.93,1.05,5.9.76,2.46-.38,8.07-1.64,11-5.18,3.51-4.18,5-10.22,2.16-13.12C240.32,264.52,234.37,264.85,232.45,265Z" style="fill:#ffa8a7"></path><path d="M224.17,267.7l.14.14c.89.85,2,1.38,3,2.19a6.94,6.94,0,0,1,2.11,3.35c.31,1.07.43,2.34,1.59,2.83,0,0,.73-2.84,3.14-2.49s2.74,3.45,1.22,5.32-3,1.15-3,1.15.08,4.08,1.88,6.38a12.24,12.24,0,0,0,5.83-.14c2.32-.49,5.61-3.4,7-6.47,2.92-6.5,3.12-12.35-1-14.1-.45-3-2.81-4.34-5.5-5-4-.92-7.78,1.46-11.75.57-.84-.18-1.65-.48-2.49-.59a.48.48,0,0,0-.29,0c-.2.1-.19.39-.13.61a5.15,5.15,0,0,0,1.17,2.15,12.56,12.56,0,0,1-4.51-.57A5.77,5.77,0,0,0,224.17,267.7Z" style="fill:#263238"></path><path d="M246.13,266.86l2.78-1.64a1.61,1.61,0,1,0-2.78,1.64Z" style="fill:#263238"></path><path d="M230.93,277.84l.09-3.22a1.61,1.61,0,1,0-.09,3.22Z" style="fill:#263238"></path><path d="M205.47,305h0l-3.3-21.16-4.43.71,3.3,21.2h0a.79.79,0,0,0,.35.52,3.39,3.39,0,0,0,3.08,0C205.19,305.94,205.54,305.45,205.47,305Z" style="fill:#37474f"></path><path d="M198.09,285.11a3.39,3.39,0,0,0,3.08,0c1-.49,1.32-1.28.65-1.77a3.33,3.33,0,0,0-3.08,0C197.71,283.83,197.42,284.62,198.09,285.11Z" style="fill:#455a64"></path><path d="M201.7,214a.5.5,0,0,1-.49-.42l-1.3-8.49-.78.45a.5.5,0,1,1-.5-.86l1.41-.82a.52.52,0,0,1,.47,0,.53.53,0,0,1,.27.38l1.41,9.2a.49.49,0,0,1-.41.57Z" style="fill:#37474f"></path><path d="M203.22,207.65a9.6,9.6,0,0,0-4.34-7.52,3,3,0,0,0-3.09-.29l-21.68,12.52L180.24,223l21.67-12.51A3,3,0,0,0,203.22,207.65Z" style="fill:#FFD230"></path><path d="M203.22,207.65a9.6,9.6,0,0,0-4.34-7.52,3,3,0,0,0-3.09-.29l-21.68,12.52L180.24,223l21.67-12.51A3,3,0,0,0,203.22,207.65Z" style="fill:#FFD230"></path><path d="M203.22,207.65a9.6,9.6,0,0,0-4.34-7.52,3,3,0,0,0-3.09-.29l-21.68,12.52L180.24,223l21.67-12.51A3,3,0,0,0,203.22,207.65Z" style="fill:#fff;opacity:0.8"></path><path d="M200.66,201.61,179,214.13a7.41,7.41,0,0,0-1.78-1.47,3.23,3.23,0,0,0-2.88-.42l21.48-12.4a3,3,0,0,1,3.09.29A8.14,8.14,0,0,1,200.66,201.61Z" style="fill:#fff;opacity:0.6000000000000001"></path><path d="M177.18,212.66a9.58,9.58,0,0,1,4.34,7.51c0,2.77-1.94,3.89-4.34,2.51a9.61,9.61,0,0,1-4.34-7.52C172.84,212.4,174.79,211.27,177.18,212.66Z" style="fill:#FFD230"></path><path d="M177.18,212.66a9.58,9.58,0,0,1,4.34,7.51c0,2.77-1.94,3.89-4.34,2.51a9.61,9.61,0,0,1-4.34-7.52C172.84,212.4,174.79,211.27,177.18,212.66Z" style="fill:#fff;opacity:0.6000000000000001"></path><path d="M174.31,212.24a2.14,2.14,0,0,0-.19.13h0Z" style="fill:#fff;opacity:0.5"></path><path d="M177.18,228.19a.54.54,0,0,1-.21-.05.48.48,0,0,1-.28-.37l-1.41-9.21a.5.5,0,0,1,.24-.51l1.41-.81a.5.5,0,1,1,.5.86l-1.11.65,1.25,8.14,23.88-13.79a.5.5,0,0,1,.5.86l-24.52,14.16A.43.43,0,0,1,177.18,228.19Z" style="fill:#37474f"></path><path d="M199.93,284.34a.5.5,0,0,1-.49-.43l-9.73-63.66a.5.5,0,1,1,1-.15l9.74,63.66a.5.5,0,0,1-.42.57Z" style="fill:#37474f"></path><path d="M227.43,294.38c-3.7.54-6.23,3.41-10.38,8.49-3.69,4.52-7.08,9.74-7.08,9.74s-6.29-11.2-6.87-13.63.5-3.12,1.13-6.52-1.47-4.79-1.47-4.79l.24,1.53a3.38,3.38,0,0,1-2.43,2.56s-1.72,0-2.1-2.46l-.56-3.63s-2.36.16-2.55,5.77c-.15,4.32.87,6.36,1.59,9.26.63,2.52,3.8,14.52,7.4,20.4,1.39,2.26,3.23,4.93,7.67,1.25s14-14,14-14S230.93,303.66,227.43,294.38Z" style="fill:#ffa8a7"></path><path d="M228.61,293.89a12.41,12.41,0,0,0-8.08,4.3c-2.75,3-8.51,10.63-8.51,10.63s.23,5.41,6.33,8.26l9-8.87a13.2,13.2,0,0,0,3.27-7.51C231,294.92,228.61,293.89,228.61,293.89Z" style="fill:#37474f"></path><path d="M196.46,273.79a8.24,8.24,0,0,1,1.27,2.66c.24.83.3,3.22,3.23,3.54,0,0-.23-3.75-1.51-5A4.23,4.23,0,0,0,196.46,273.79Z" style="fill:#f28f8f"></path><path d="M201.33,280.19c-3-1.54-2.2-3.1-3.76-4.93-1.41-1.66-1.55-2.17-1.38-2.78.11-.4.49-.47,1.25-.3,1.91.43,3.17,2.43,4.14,4Z" style="fill:#ffa8a7"></path><path d="M195.34,278.26a.76.76,0,0,0,.21-.47.91.91,0,0,0,.91.24,1,1,0,0,0,.7-.9,1.09,1.09,0,0,1-.7,1.13c-.79.24-.81-.11-.81-.11a.65.65,0,0,1-.19.35" style="fill:#f28f8f"></path></g></svg>