<?xml version="1.0" standalone="no"?>
<!DOCTYPE svg PUBLIC "-//W3C//DTD SVG 20010904//EN"
 "http://www.w3.org/TR/2001/REC-SVG-20010904/DTD/svg10.dtd">
<svg version="1.0" xmlns="http://www.w3.org/2000/svg"
 width="500.000000pt" height="500.000000pt" viewBox="0 0 500.000000 500.000000"
 preserveAspectRatio="xMidYMid meet">
<metadata>
Created by potrace 1.16, written by Peter Selinger 2001-2019
</metadata>
<g transform="translate(0.000000,500.000000) scale(0.100000,-0.100000)"
fill="#000000" stroke="none">
<path d="M1060 3410 c-75 -25 -132 -89 -162 -178 -20 -62 -22 -93 -27 -405
l-6 -339 -29 -24 c-15 -14 -41 -28 -57 -31 l-29 -5 0 -153 0 -153 33 -11 c17
-6 43 -20 57 -31 l25 -19 6 -343 c6 -359 10 -393 57 -483 26 -52 66 -89 122
-114 38 -17 66 -21 183 -21 l137 0 0 170 0 170 -68 0 c-40 0 -73 5 -80 12 -9
9 -12 90 -12 303 0 333 -4 355 -74 449 l-44 58 33 44 c18 24 44 69 56 101 22
54 23 77 28 351 6 294 6 294 30 313 16 13 39 19 77 19 l54 0 0 164 c0 192 14
176 -150 176 -76 -1 -120 -6 -160 -20z"/>
<path d="M3620 3262 l0 -169 62 -7 c35 -3 69 -13 78 -21 12 -13 16 -62 20
-293 5 -272 5 -278 31 -332 14 -30 49 -83 78 -118 l53 -63 -71 -74 c-45 -48
-73 -87 -80 -112 -7 -23 -11 -152 -11 -320 0 -332 4 -318 -97 -310 l-63 5 0
-173 0 -172 103 -7 c218 -14 314 39 370 206 19 58 21 92 26 404 7 380 3 363
79 396 l42 19 0 152 0 152 -45 19 c-25 10 -51 28 -58 40 -8 15 -14 119 -18
356 -6 365 -9 390 -68 482 -18 28 -48 57 -78 75 -46 27 -54 28 -200 31 l-153
4 0 -170z"/>
<path d="M2548 2693 c-4 -598 -4 -599 -50 -665 -10 -14 -39 -37 -66 -50 -39
-19 -63 -23 -142 -23 -110 0 -156 18 -209 82 l-31 38 0 -222 0 -222 48 -8 c26
-4 117 -8 202 -8 169 0 250 17 352 72 68 37 154 131 187 205 62 138 63 148 68
786 l5 582 -181 0 -180 0 -3 -567z"/>
</g>
</svg>
